<?xml version="1.0" encoding="UTF-8" standalone="no"?>
<!DOCTYPE svg PUBLIC "-//W3C//DTD SVG 1.1//EN"
 "http://www.w3.org/Graphics/SVG/1.1/DTD/svg11.dtd">
<!-- Generated by graphviz version 2.38.0 (20140413.2041)
 -->
<!-- Title: %3 Pages: 1 -->
<svg width="329pt" height="332pt"
 viewBox="0.00 0.00 328.50 332.00" xmlns="http://www.w3.org/2000/svg" xmlns:xlink="http://www.w3.org/1999/xlink">
<g id="graph0" class="graph" transform="scale(1 1) rotate(0) translate(4 328)">
<title>%3</title>
<polygon fill="white" stroke="none" points="-4,4 -4,-328 324.5,-328 324.5,4 -4,4"/>
<!-- node0 -->
<g id="node1" class="node"><title>node0</title>
<polygon fill="none" stroke="black" points="185.5,-324 95.5,-324 95.5,-288 185.5,-288 185.5,-324"/>
<text text-anchor="middle" x="140.5" y="-302.3" font-family="Times,serif" font-size="14.00">BnfGrammar</text>
</g>
<!-- node1 -->
<g id="node2" class="node"><title>node1</title>
<polygon fill="none" stroke="black" points="171.5,-252 109.5,-252 109.5,-216 171.5,-216 171.5,-252"/>
<text text-anchor="middle" x="140.5" y="-230.3" font-family="Times,serif" font-size="14.00">BnfRule</text>
</g>
<!-- node0&#45;&#45;node1 -->
<g id="edge1" class="edge"><title>node0&#45;&#45;node1</title>
<path fill="none" stroke="black" d="M140.5,-287.697C140.5,-276.846 140.5,-262.917 140.5,-252.104"/>
</g>
<!-- node2 -->
<g id="node3" class="node"><title>node2</title>
<polygon fill="none" stroke="black" points="125,-180 30,-180 30,-144 125,-144 125,-180"/>
<text text-anchor="middle" x="77.5" y="-158.3" font-family="Times,serif" font-size="14.00">BnfRuleName</text>
</g>
<!-- node1&#45;&#45;node2 -->
<g id="edge2" class="edge"><title>node1&#45;&#45;node2</title>
<path fill="none" stroke="black" d="M124.927,-215.697C115.162,-204.846 102.625,-190.917 92.8939,-180.104"/>
</g>
<!-- node3 -->
<g id="node4" class="node"><title>node3</title>
<polygon fill="none" stroke="black" points="265.5,-180 143.5,-180 143.5,-144 265.5,-144 265.5,-180"/>
<text text-anchor="middle" x="204.5" y="-158.3" font-family="Times,serif" font-size="14.00">BnfProductionRule</text>
</g>
<!-- node1&#45;&#45;node3 -->
<g id="edge3" class="edge"><title>node1&#45;&#45;node3</title>
<path fill="none" stroke="black" d="M156.32,-215.697C166.241,-204.846 178.976,-190.917 188.862,-180.104"/>
</g>
<!-- node4 -->
<g id="node5" class="node"><title>node4</title>
<polygon fill="none" stroke="black" points="193,-108 104,-108 104,-72 193,-72 193,-108"/>
<text text-anchor="middle" x="148.5" y="-86.3" font-family="Times,serif" font-size="14.00">BnfSequence</text>
</g>
<!-- node3&#45;&#45;node4 -->
<g id="edge4" class="edge"><title>node3&#45;&#45;node4</title>
<path fill="none" stroke="black" d="M190.657,-143.697C181.977,-132.846 170.833,-118.917 162.183,-108.104"/>
</g>
<!-- node7 -->
<g id="node8" class="node"><title>node7</title>
<polygon fill="none" stroke="black" points="305,-108 216,-108 216,-72 305,-72 305,-108"/>
<text text-anchor="middle" x="260.5" y="-86.3" font-family="Times,serif" font-size="14.00">BnfSequence</text>
</g>
<!-- node3&#45;&#45;node7 -->
<g id="edge7" class="edge"><title>node3&#45;&#45;node7</title>
<path fill="none" stroke="black" d="M218.343,-143.697C227.023,-132.846 238.167,-118.917 246.817,-108.104"/>
</g>
<!-- node5 -->
<g id="node6" class="node"><title>node5</title>
<polygon fill="none" stroke="black" points="87,-36 0,-36 0,-0 87,-0 87,-36"/>
<text text-anchor="middle" x="43.5" y="-14.3" font-family="Times,serif" font-size="14.00">BnfTerminal</text>
</g>
<!-- node4&#45;&#45;node5 -->
<g id="edge5" class="edge"><title>node4&#45;&#45;node5</title>
<path fill="none" stroke="black" d="M122.814,-71.8761C106.543,-61.0287 85.5747,-47.0498 69.2846,-36.1898"/>
</g>
<!-- node6 -->
<g id="node7" class="node"><title>node6</title>
<polygon fill="none" stroke="black" points="192,-36 105,-36 105,-0 192,-0 192,-36"/>
<text text-anchor="middle" x="148.5" y="-14.3" font-family="Times,serif" font-size="14.00">BnfTerminal</text>
</g>
<!-- node4&#45;&#45;node6 -->
<g id="edge6" class="edge"><title>node4&#45;&#45;node6</title>
<path fill="none" stroke="black" d="M148.5,-71.6966C148.5,-60.8463 148.5,-46.9167 148.5,-36.1043"/>
</g>
<!-- node8 -->
<g id="node9" class="node"><title>node8</title>
<polygon fill="none" stroke="black" points="320.5,-36 210.5,-36 210.5,-0 320.5,-0 320.5,-36"/>
<text text-anchor="middle" x="265.5" y="-14.3" font-family="Times,serif" font-size="14.00">BnfNonTerminal</text>
</g>
<!-- node7&#45;&#45;node8 -->
<g id="edge8" class="edge"><title>node7&#45;&#45;node8</title>
<path fill="none" stroke="black" d="M261.736,-71.6966C262.511,-60.8463 263.506,-46.9167 264.278,-36.1043"/>
</g>
</g>
</svg>
